<svg width="16" height="21" viewBox="0 0 16 21" fill="none" xmlns="http://www.w3.org/2000/svg">
<path fill-rule="evenodd" clip-rule="evenodd" d="M14.6679 0.212779C15.1378 0.565218 15.233 1.23187 14.8806 1.70179C13.0293 4.17014 11.5387 7.72885 11.3623 10.9778C11.2747 12.5919 11.5139 14.0741 12.1376 15.3023C12.752 16.5121 13.7681 17.5346 15.3551 18.2147C15.895 18.4461 16.1451 19.0713 15.9137 19.6112C15.6823 20.1511 15.0571 20.4012 14.5172 20.1699C12.4833 19.2982 11.0867 17.9307 10.241 16.2655C9.40461 14.6186 9.1363 12.7407 9.23826 10.8625C9.44105 7.1271 11.118 3.17328 13.1789 0.425495C13.5313 -0.0444246 14.1979 -0.139661 14.6679 0.212779Z" fill="#4B5563"/>
<path fill-rule="evenodd" clip-rule="evenodd" d="M5.45017 0.212779C5.92009 0.565218 6.01533 1.23187 5.66289 1.70179C3.81163 4.17014 2.32098 7.72885 2.1446 10.9778C2.05698 12.5919 2.29619 14.0741 2.91991 15.3023C3.53433 16.5121 4.55043 17.5346 6.13742 18.2147C6.67732 18.4461 6.92743 19.0713 6.69604 19.6112C6.46465 20.1511 5.83939 20.4012 5.29949 20.1699C3.26565 19.2982 1.86903 17.9307 1.02332 16.2655C0.186915 14.6186 -0.0813936 12.7407 0.0205682 10.8625C0.223357 7.1271 1.90032 3.17328 3.96116 0.425495C4.3136 -0.0444246 4.98025 -0.139661 5.45017 0.212779Z" fill="#4B5563"/>
</svg>
